name analog
datacolumns 19
datarows 18
range 0.0 0.0085
endheader
time	ground_force_vx	ground_force_vy	ground_force_vz	ground_force_px	ground_force_py	ground_force_pz	l_ground_force_vx	l_ground_force_vy	l_ground_force_vz	l_ground_force_px	l_ground_force_py	l_ground_force_pz	ground_torque_x	ground_torque_y	ground_torque_z	l_ground_torque_x	l_ground_torque_y	l_ground_torque_z
0.0	-0.0	-0.0	-0.0	11.236382484436035	67.80284881591797	-410.5798950195313	-1.4404054880142212	-64.07510375976562	-411.8800964355469	-0.0	-0.0	-0.0	-0.0	-0.0	-0.0	90931.6953125	-3540.33154296875	1835.9373779296875
0.0005	-0.0	-0.0	-0.0	11.201996803283691	68.06118774414062	-409.6205139160156	-0.7683248519897461	-64.80716705322266	-413.7624206542969	-0.0	-0.0	-0.0	-0.0	-0.0	-0.0	90923.1328125	-4228.3310546875	2113.273193359375
0.001	-0.0	-0.0	-0.0	10.35231590270996	66.98344421386719	-408.5601806640625	-0.1519763618707656	-65.95097351074219	-414.1939697265625	-0.0	-0.0	-0.0	-0.0	-0.0	-0.0	90936.3046875	-4556.9765625	2199.4345703125
0.0015	-0.0	-0.0	-0.0	9.72394561767578	66.71224212646484	-405.8883666992188	0.802599310874939	-66.9520263671875	-414.3432922363281	-0.0	-0.0	-0.0	-0.0	-0.0	-0.0	91255.796875	-4900.26171875	2521.947998046875
0.002	-0.0	-0.0	-0.0	8.96017837524414	65.482177734375	-404.2072143554688	0.7772478461265564	-67.14553833007812	-416.2049560546875	-0.0	-0.0	-0.0	-0.0	-0.0	-0.0	91333.8203125	-5275.19091796875	2459.75732421875
0.0025	-0.0	-0.0	-0.0	8.093231201171875	64.68376922607422	-403.5011596679688	0.7732498049736023	-66.99397277832031	-416.5379028320313	-0.0	-0.0	-0.0	-0.0	-0.0	-0.0	91589.71875	-5801.49951171875	2609.462890625
0.003	-0.0	-0.0	-0.0	6.46274995803833	63.88505172729492	-404.2078247070313	1.6218255758285522	-66.38920593261719	-417.5018005371094	-0.0	-0.0	-0.0	-0.0	-0.0	-0.0	91622.953125	-6042.6220703125	2639.858154296875
0.0035	-0.0	-0.0	-0.0	5.820172786712647	63.55322647094727	-402.3570556640625	2.0228147506713867	-66.28727722167969	-418.7310485839844	-0.0	-0.0	-0.0	-0.0	-0.0	-0.0	92281.109375	-6778.82666015625	2803.927978515625
0.004	-0.0	-0.0	-0.0	4.288296699523926	62.36668014526367	-402.3449096679688	3.058741569519043	-66.04342651367188	-420.4763488769531	-0.0	-0.0	-0.0	-0.0	-0.0	-0.0	92593.5078125	-7200.36181640625	2967.231689453125
0.0045000000000000005	-0.0	-0.0	-0.0	2.5596556663513184	61.94563293457031	-404.4880676269531	3.505779266357422	-65.62301635742188	-421.2447204589844	-0.0	-0.0	-0.0	-0.0	-0.0	-0.0	93220.265625	-7931.6357421875	3086.286865234375
0.005	-0.0	-0.0	-0.0	0.6648252010345459	61.859336853027344	-403.1380615234375	4.325476169586182	-65.42510986328125	-423.9671020507813	-0.0	-0.0	-0.0	-0.0	-0.0	-0.0	93618.2265625	-8513.642578125	3115.46240234375
0.0055	-0.0	-0.0	-0.0	-0.5379595160484314	61.43784713745117	-405.9856567382813	4.481476306915283	-64.96217346191406	-425.7124328613281	-0.0	-0.0	-0.0	-0.0	-0.0	-0.0	94306.5703125	-9100.16015625	3249.731201171875
0.006	-0.0	-0.0	-0.0	-1.965172290802002	60.8735237121582	-406.5959167480469	4.612960815429688	-64.80679321289062	-426.5789489746094	-0.0	-0.0	-0.0	-0.0	-0.0	-0.0	94976.8984375	-9585.99609375	3213.035888671875
0.006500000000000001	-0.0	-0.0	-0.0	-2.8089382648468018	60.65204620361328	-404.8207092285156	4.163697719573975	-64.56599426269531	-429.8056640625	-0.0	-0.0	-0.0	-0.0	-0.0	-0.0	95159.53125	-10105.3173828125	3123.772216796875
0.007	-0.0	-0.0	-0.0	-3.368270874023437	60.40641021728516	-403.5986633300781	3.8790223598480233	-64.42929077148438	-431.6577453613281	-0.0	-0.0	-0.0	-0.0	-0.0	-0.0	95419.46875	-10249.12109375	2995.90625
0.0075	-0.0	-0.0	-0.0	-3.7033066749572754	59.78047561645508	-401.2039489746094	4.013510227203369	-64.29818725585938	-430.5886840820313	-0.0	-0.0	-0.0	-0.0	-0.0	-0.0	95161.4296875	-10446.3896484375	2907.12060546875
0.008	-0.0	-0.0	-0.0	-3.45541787147522	60.05012130737305	-401.5656127929688	3.814563751220703	-64.43190002441406	-431.4568786621094	-0.0	-0.0	-0.0	-0.0	-0.0	-0.0	95321.296875	-10702.3125	3145.978271484375
0.0085	-0.0	-0.0	-0.0	-3.592162847518921	59.80841827392578	-400.0664978027344	4.193360805511475	-64.80899047851562	-431.5513916015625	-0.0	-0.0	-0.0	-0.0	-0.0	-0.0	94860.4609375	-10915.61328125	3108.463134765625
